<?xml version="1.0" encoding="UTF-8"?>
<!DOCTYPE svg PUBLIC "-//W3C//DTD SVG 1.1//EN" "http://www.w3.org/Graphics/SVG/1.1/DTD/svg11.dtd">
<!-- Creator: CorelDRAW X8 -->
<svg xmlns="http://www.w3.org/2000/svg" xml:space="preserve" width="7.87402in" height="2.24409in" version="1.1" style="shape-rendering:geometricPrecision; text-rendering:geometricPrecision; image-rendering:optimizeQuality; fill-rule:evenodd; clip-rule:evenodd"
viewBox="0 0 7874 2244"
 xmlns:xlink="http://www.w3.org/1999/xlink">
 <defs>
  <style type="text/css">
   <![CDATA[
    .str1 {stroke:white;stroke-width:18.1614}
    .str0 {stroke:white;stroke-width:36.3504}
    .fil2 {fill:#3E2F3E}
    .fil1 {fill:white}
    .fil0 {fill:white;fill-rule:nonzero}
   ]]>
  </style>
 </defs>
 <g id="Layer_x0020_1">
  <metadata id="CorelCorpID_0Corel-Layer"/>
  <g id="_1726532541680">
   <path class="fil0 str0" d="M2229 1264l0 0c0,42 33,75 75,75l0 0c41,0 76,-33 76,-75l0 -799 0 0c0,-42 -35,-74 -76,-74l0 0c-42,0 -75,32 -75,74l0 799zm859 75c119,0 227,-40 313,-106 32,-26 38,-74 13,-108 -27,-33 -77,-38 -108,-15 -61,49 -134,74 -218,74 -93,0 -180,-38 -244,-97 -61,-60 -99,-144 -99,-236 0,-92 38,-173 99,-236 64,-59 151,-97 244,-97 84,0 158,26 218,74 31,25 81,19 108,-14 25,-34 19,-82 -13,-109 -86,-66 -194,-105 -313,-105 -271,1 -496,219 -497,487 1,270 226,488 497,488zm1243 -874c0,-42 -34,-74 -74,-74l-579 0c-42,0 -74,32 -74,74 0,41 32,76 74,76l214 0 0 723c0,42 34,75 75,75 42,0 74,-33 74,-75l0 -723 216 0c40,0 74,-35 74,-76zm1115 723l-289 0 256 -231c70,-64 107,-153 107,-241 0,-77 -27,-157 -84,-218 -64,-71 -153,-107 -241,-107 -77,0 -157,27 -218,84l-42 38c-31,28 -32,74 -5,105 28,31 74,34 105,6l42 -38c34,-30 76,-45 118,-45 47,0 95,18 130,57 30,34 45,74 45,118 0,48 -18,94 -57,130l-401 363c-30,28 -32,74 -4,105 14,16 35,25 55,25 0,0 2,0 2,0 1,0 1,0 1,0l480 0c42,0 74,-33 74,-75 0,-42 -32,-76 -74,-76zm353 0l0 0c57,86 145,151 252,151l0 0c104,0 194,-65 250,-151l0 0c59,-86 91,-200 91,-323l0 0c0,-125 -32,-237 -91,-324l0 0c-56,-87 -146,-150 -250,-150l0 0c-107,0 -195,63 -252,150l0 0c-60,87 -91,199 -92,324l0 0c1,123 32,237 92,323zm378 -84l0 0c-39,59 -84,84 -126,84l0 0c-42,0 -88,-25 -129,-84l0 0c-38,-57 -65,-143 -65,-239l0 0c0,-98 27,-183 65,-241l0 0c41,-57 87,-84 129,-83l0 0c42,-1 87,26 126,83l0 0c38,58 65,143 65,241l0 0c0,96 -27,182 -65,239zm766 -644c-2,-3 -2,-5 -2,-9 0,-2 -2,-5 -2,-7 -1,-2 -1,-4 -3,-7 0,-3 -1,-4 -2,-7 0,-1 -2,-3 -2,-4 0,0 -1,-3 -1,-3 -1,-1 -4,-4 -5,-5 -2,-3 -3,-4 -4,-6 -2,-1 -3,-4 -6,-5 -1,-1 -4,-3 -5,-4 -3,-1 -4,-3 -6,-4 -2,0 -4,-2 -8,-4 -1,-2 -4,-2 -5,-2 -3,-1 -4,-2 -8,-2 -2,1 -4,1 -6,0 -2,0 -5,0 -9,0 0,0 -2,0 -2,0 -1,0 -2,0 -4,0 -2,-2 -6,-2 -9,0 -1,0 -4,0 -6,1 -2,0 -5,1 -8,1 -2,2 -4,4 -6,4 -2,2 -4,2 -6,3l-166 99c-36,21 -48,68 -25,102 14,24 38,38 64,38 12,0 26,-3 38,-11l54 -31 0 667c0,42 32,75 74,75 41,0 76,-33 76,-75l0 -800c0,-1 0,-3 0,-4zm503 586c46,0 90,-9 130,-27 -6,12 -11,24 -18,35 -23,41 -51,72 -85,95 -35,22 -76,37 -128,38 -42,4 -74,38 -73,78 3,42 37,74 79,72 77,-2 146,-25 203,-63 85,-57 141,-143 175,-232 34,-89 47,-187 47,-278 0,-25 -1,-51 -3,-77 -1,-1 -1,-1 -1,-2 -16,-166 -156,-294 -326,-294 -182,0 -329,146 -329,327 0,182 147,328 329,328zm0 -505c99,0 177,79 177,177 0,98 -78,179 -177,179 -99,0 -179,-81 -179,-179 0,-98 80,-177 179,-177z"/>
   <path class="fil0 str1" d="M2129 1859l0 0c0,12 9,21 20,21l0 0c12,0 21,-9 21,-21l0 -222 0 0c0,-11 -9,-20 -21,-20l0 0c-11,0 -20,9 -20,20l0 222zm153 -156l120 167c1,1 2,2 2,3 4,4 10,7 16,7 11,0 20,-9 20,-21l0 -218c0,-11 -9,-20 -20,-20 -12,0 -21,9 -21,20l0 155 -121 -168c-6,-9 -19,-11 -29,-5 -5,4 -8,11 -8,17 0,1 0,1 0,1l0 218c0,12 9,21 21,21 11,0 20,-9 20,-21l0 -156zm278 0l120 167c0,1 1,2 2,3 4,4 9,7 15,7 12,0 21,-9 21,-21l0 -218c0,-11 -9,-20 -21,-20 -11,0 -20,9 -20,20l0 155 -121 -168c-7,-9 -20,-11 -29,-5 -6,4 -9,11 -8,17 0,1 0,1 0,1l0 218c0,12 9,21 20,21 11,0 21,-9 21,-21l0 -156zm347 -94c-36,0 -69,16 -92,41 -23,24 -37,57 -37,95 0,37 14,70 37,95 23,24 56,40 92,40 0,0 0,0 0,0 35,0 68,-16 90,-40 24,-25 38,-58 38,-95 0,-38 -14,-71 -38,-95 -22,-25 -55,-41 -90,-41zm60 201c-16,17 -37,27 -60,27 -24,0 -45,-10 -61,-27 -15,-16 -25,-40 -25,-65 0,-26 10,-50 25,-66 16,-17 37,-27 61,-27 23,0 44,10 60,27 15,16 25,40 25,66 0,25 -10,49 -25,65zm213 67c2,1 3,2 4,2 0,0 0,0 0,0 0,0 1,0 1,0 0,0 2,1 3,1 0,0 0,0 0,0 1,0 3,0 4,0 1,1 2,1 4,0 0,0 1,0 1,0 1,0 2,-1 3,-1 0,0 0,0 0,0 0,0 0,0 0,0 2,0 3,-1 3,-2 1,0 1,0 1,0 1,-1 2,-1 2,-2 1,-1 1,-1 1,-1 1,-1 2,-2 2,-3 0,0 0,0 0,0 1,-1 2,-2 2,-3l93 -220c4,-10 -1,-22 -11,-26 -11,-5 -23,0 -28,11l-73 174 -73 -174c-5,-11 -17,-16 -27,-11 -11,4 -16,16 -11,26l92 220c1,1 1,2 2,3 0,0 0,0 0,0 1,1 1,2 2,3 0,0 0,0 0,1 2,1 2,1 3,2 0,0 0,0 0,0zm298 -10c3,8 11,13 20,13 2,0 5,0 7,-1 11,-4 16,-16 12,-27l-83 -222c-3,-8 -11,-13 -20,-13 -8,0 -16,5 -20,13l-83 222c-4,11 2,23 12,27 3,1 5,1 8,1 8,0 16,-5 19,-13l19 -49 91 0 18 49zm-94 -90l30 -81 31 81 -61 0zm329 -140c0,-11 -10,-20 -21,-20l-161 0c-11,0 -20,9 -20,20 0,12 9,22 20,22l60 0 0 200c0,12 9,21 21,21 11,0 20,-9 20,-21l0 -200 60 0c11,0 21,-10 21,-22zm65 222l0 0c0,12 9,21 20,21l0 0c11,0 21,-9 21,-21l0 -222 0 0c0,-11 -10,-20 -21,-20l0 0c-11,0 -20,9 -20,20l0 222zm229 -250c-36,0 -69,16 -92,41 -23,24 -37,57 -37,95 0,37 14,70 37,95 23,24 56,40 92,40 0,0 0,0 0,0 35,0 68,-16 90,-40 24,-25 38,-58 38,-95 0,-38 -14,-71 -38,-95 -22,-25 -55,-41 -90,-41zm60 201c-16,17 -37,27 -60,27 -24,0 -45,-10 -61,-27 -15,-16 -25,-40 -25,-65 0,-26 10,-50 25,-66 16,-17 37,-27 61,-27 23,0 44,10 60,27 15,16 25,40 25,66 0,25 -10,49 -25,65zm174 -107l120 167c1,1 2,2 2,3 4,4 10,7 16,7 11,0 20,-9 20,-21l0 -218c0,-11 -9,-20 -20,-20 -12,0 -21,9 -21,20l0 155 -121 -168c-7,-9 -19,-11 -29,-5 -5,4 -8,11 -8,17 0,1 0,1 0,1l0 218c0,12 9,21 21,21 11,0 20,-9 20,-21l0 -156zm479 -94c-36,0 -69,16 -92,41 -23,24 -37,57 -37,95 0,37 14,70 37,95 23,24 56,40 92,40 0,0 0,0 0,0 35,0 68,-16 90,-40 24,-25 38,-58 38,-95 0,-38 -14,-71 -38,-95 -22,-25 -55,-41 -90,-41zm60 201c-16,17 -37,27 -60,27 -24,0 -45,-10 -61,-27 -15,-16 -25,-40 -25,-65 0,-26 10,-50 25,-66 16,-17 37,-27 61,-27 23,0 44,10 60,27 15,16 25,40 25,66 0,25 -10,49 -25,65zm163 70c12,0 21,-9 21,-21l0 -90 88 0c11,0 20,-9 20,-21 0,-11 -9,-21 -20,-21l-88 0 0 -68 102 0c11,0 21,-10 21,-22 0,-11 -10,-20 -21,-20l-122 0c-1,0 -1,0 -1,0 0,0 0,0 0,0 -12,0 -21,9 -21,20l0 222c0,12 9,21 21,21zm501 -243c0,-11 -9,-20 -20,-20l-161 0c-12,0 -21,9 -21,20 0,12 9,22 21,22l60 0 0 200c0,12 9,21 20,21 12,0 21,-9 21,-21l0 -200 60 0c11,0 20,-10 20,-22zm83 243c0,0 1,0 1,0 0,0 0,0 0,0l122 0c11,0 21,-9 21,-21 0,-11 -10,-21 -21,-21l-102 0 0 -69 88 0c11,0 21,-9 21,-21 0,-11 -10,-21 -21,-21l-88 0 0 -68 102 0c11,0 21,-10 21,-22 0,-11 -10,-20 -21,-20l-122 0c0,0 0,0 0,0 0,0 -1,0 -1,0 -11,0 -20,9 -20,20l0 222c0,12 9,21 20,21zm329 0c33,0 63,-11 87,-29 9,-7 10,-21 4,-30 -8,-9 -22,-11 -30,-4 -17,13 -38,20 -61,20 -26,0 -50,-10 -68,-27 -17,-16 -27,-40 -27,-65 0,-26 10,-48 27,-66 18,-16 42,-27 68,-27 23,0 44,7 61,21 8,7 22,5 30,-4 6,-10 5,-23 -4,-30 -24,-19 -54,-30 -87,-30 -75,1 -138,61 -138,136 0,75 63,135 138,135zm184 0c12,0 21,-9 21,-21l0 -90 98 0 0 90c0,12 9,21 21,21 11,0 21,-9 21,-21l0 -222c0,-11 -10,-20 -21,-20 -12,0 -21,9 -21,20l0 91 -98 0 0 -91c0,-11 -9,-20 -21,-20 -11,0 -20,9 -20,20l0 222c0,12 9,21 20,21zm288 -177l120 167c1,1 1,2 2,3 4,4 9,7 16,7 11,0 20,-9 20,-21l0 -218c0,-11 -9,-20 -20,-20 -12,0 -21,9 -21,20l0 155 -121 -168c-7,-9 -20,-11 -29,-5 -6,4 -9,11 -8,17 0,1 0,1 0,1l0 218c0,12 9,21 20,21 11,0 21,-9 21,-21l0 -156zm347 -94c-36,0 -69,16 -92,41 -23,24 -37,57 -37,95 0,37 14,70 37,95 23,24 56,40 92,40 0,0 0,0 0,0 35,0 68,-16 90,-40 24,-25 38,-58 38,-95 0,-38 -14,-71 -38,-95 -22,-25 -55,-41 -90,-41zm60 201c-16,17 -37,27 -60,27 -24,0 -45,-10 -61,-27 -15,-16 -25,-40 -25,-65 0,-26 10,-50 25,-66 16,-17 37,-27 61,-27 23,0 44,10 60,27 15,16 25,40 25,66 0,25 -10,49 -25,65zm161 70c0,0 0,0 1,0 0,0 0,0 0,0l122 0c11,0 21,-9 21,-21 0,-11 -10,-21 -21,-21l-102 0 0 -201c0,-11 -9,-20 -21,-20 -11,0 -20,9 -20,20l0 222c0,12 9,21 20,21zm294 -271c-36,0 -69,16 -92,41 -23,24 -37,57 -37,95 0,37 14,70 37,95 23,24 56,40 92,40 0,0 0,0 0,0 35,0 68,-16 90,-40 23,-25 38,-58 38,-95 0,-38 -15,-71 -38,-95 -22,-25 -55,-41 -90,-41zm60 201c-16,17 -37,27 -60,27 -24,0 -45,-10 -61,-27 -16,-16 -25,-40 -25,-65 0,-26 9,-50 25,-66 16,-17 37,-27 61,-27 23,0 44,10 60,27 15,16 25,40 25,66 0,25 -10,49 -25,65zm269 70c32,0 62,-11 86,-29 3,-3 6,-6 7,-9 0,0 0,-1 0,-1 0,0 0,-1 1,-1 0,-3 1,-4 1,-7l0 -83c0,-12 -10,-21 -22,-21 0,0 0,0 -1,0 0,0 0,0 0,0l-74 0c-12,0 -21,9 -21,21 0,12 9,21 21,21l54 0 0 52c-15,9 -33,14 -52,14 -27,0 -51,-10 -67,-27 -18,-17 -29,-40 -29,-65 0,-26 11,-48 29,-65 16,-18 40,-28 67,-28 23,0 44,8 60,20 9,8 23,6 30,-3 7,-9 6,-23 -4,-30 -23,-19 -54,-30 -86,-30 -76,0 -139,60 -139,136 0,75 63,135 139,135 0,0 0,0 0,0zm347 -256c-9,-7 -22,-5 -29,4l-65 88 -64 -88c-6,-9 -19,-11 -28,-4 -10,6 -12,19 -5,28l77 106 0 101c0,12 10,21 20,21 12,0 21,-9 21,-21l0 -101 77 -106c7,-9 5,-22 -4,-28z"/>
   <path class="fil1" d="M1725 1477c-54,45 -199,108 -267,67 9,-17 51,-55 80,-94 81,-109 138,-189 172,-337 60,-252 -8,-401 -31,-605 -11,19 -13,63 -16,86 -4,28 -9,59 -13,86 -10,53 -22,108 -38,157 -59,185 -114,246 -231,361 -93,93 -242,185 -389,193 -122,7 -234,-31 -356,-39 -193,-12 -460,36 -543,232 -61,143 -7,232 15,320 3,-81 3,-160 73,-232 278,-286 655,49 909,63 99,6 181,1 275,-17 140,-29 306,-112 360,-241l0 0 0 0z"/>
   <path class="fil1" d="M1094 1064c212,-125 333,-331 316,-590 -22,30 -37,63 -61,94 -76,101 -141,146 -264,209 -238,120 -619,149 -829,267 -19,10 -33,18 -50,29 -139,90 -232,267 -200,498 14,-29 18,-57 36,-91 44,-85 110,-130 208,-169 342,-136 561,74 865,-53 31,-13 56,-28 82,-44 32,-21 43,-32 70,-56 32,-29 86,-90 103,-145 -94,38 -149,82 -276,51l0 0 0 0z"/>
   <path class="fil1" d="M902 2008c-55,28 -95,59 -171,78 -192,47 -311,-79 -261,-188 24,-50 80,-82 149,-97 160,-34 287,21 432,47 133,23 305,-4 408,-62 -73,4 -115,16 -194,10 -59,-5 -114,-16 -169,-31 -107,-28 -203,-63 -305,-99 -163,-57 -323,-135 -484,-62 -402,183 -60,799 382,586 78,-37 181,-121 213,-182l0 0 0 0z"/>
   <path class="fil1" d="M623 229c-152,55 -145,134 -168,222 -24,91 -76,117 -129,164 -12,12 -16,13 -26,22 -10,9 -16,17 -26,26 -75,72 -119,129 -169,224 -41,79 -86,201 -99,303 25,-40 22,-80 99,-181 222,-292 583,-272 791,-474 17,-16 46,-53 62,-79 39,-63 58,-143 50,-234 -11,-114 -41,-143 -66,-213 -29,153 -49,239 -131,336 -89,106 -256,94 -188,-116l0 0 0 0z"/>
   <path class="fil1" d="M989 60c56,179 64,324 -50,455 -202,231 -473,183 -742,423 -103,93 -192,246 -196,387l11 -31c126,-362 585,-361 952,-487 77,-27 192,-157 203,-284 14,-173 -104,-365 -178,-463l0 0z"/>
   <path class="fil2" d="M16 1764c5,6 19,-7 6,-3 0,0 -15,-6 -6,3z"/>
  </g>
 </g>
</svg>
