<?xml version="1.0" encoding="UTF-8"?>
<!DOCTYPE svg PUBLIC "-//W3C//DTD SVG 1.1//EN" "http://www.w3.org/Graphics/SVG/1.1/DTD/svg11.dtd">
<!-- Creator: CorelDRAW X8 -->
<svg xmlns="http://www.w3.org/2000/svg" xml:space="preserve" width="3.93701in" height="3.93701in" version="1.1" style="shape-rendering:geometricPrecision; text-rendering:geometricPrecision; image-rendering:optimizeQuality; fill-rule:evenodd; clip-rule:evenodd"
viewBox="0 0 3937 3937"
 xmlns:xlink="http://www.w3.org/1999/xlink">
 <defs>
  <style type="text/css">
   <![CDATA[
    .fil4 {fill:#2D142C}
    .fil2 {fill:#510A32}
    .fil5 {fill:#801336}
    .fil1 {fill:#C92A42}
    .fil3 {fill:#EE4540}
    .fil0 {fill:#EE4540;fill-opacity:0.109804}
   ]]>
  </style>
 </defs>
 <g id="Layer_x0020_1">
  <metadata id="CorelCorpID_0Corel-Layer"/>
  <g id="_2692655517264">
   <path class="fil0" d="M672 2404c-88,-178 -92,-361 66,-474 158,-113 480,-157 642,-318 162,-162 165,-441 260,-602 94,-160 280,-201 485,-171 205,30 429,130 484,324 55,194 -59,481 -9,670 49,189 262,280 363,430 101,149 91,357 -12,487 -104,131 -301,184 -494,83 -194,-101 -382,-356 -608,-365 -226,-10 -488,226 -704,257 -216,32 -386,-142 -473,-321z"/>
   <g>
    <path id="Shape" class="fil1" d="M2401 1801l-228 -125 -148 -189 52 -63c29,-35 80,-39 115,-10l251 209c34,29 39,81 10,115l-52 63z"/>
    <path id="Shape_0" class="fil2" d="M1304 1180c-16,0 -31,-9 -37,-24 -7,-14 -5,-31 5,-43l205 -244c14,-18 40,-20 57,-6 17,15 20,41 5,58l-204 244c-8,9 -19,15 -31,15l0 0z"/>
    <path id="Shape_1" class="fil2" d="M2841 2461c-16,0 -30,-9 -37,-23 -7,-15 -5,-32 6,-44l202 -242c9,-11 24,-17 38,-14 15,2 27,12 32,26 5,14 2,29 -8,41l-202 242c-8,9 -19,14 -31,14l0 0z"/>
    <path id="Shape_2" class="fil1" d="M2257 2328l-156 660 -157 -132c116,-138 13,-415 -229,-617 -242,-203 -533,-255 -649,-116l-156 -131 621 -270 726 606z"/>
    <path id="Shape_3" class="fil3" d="M2880 2628c-44,53 -122,62 -178,22l-455 -328c-39,-28 -90,-31 -132,-7l-22 12c-29,16 -66,13 -93,-9l-414 -346c-26,-22 -36,-58 -25,-90l9 -23c15,-46 3,-96 -31,-129l-404 -390c-50,-48 -54,-126 -10,-179 45,-53 122,-63 178,-22l456 328c38,28 90,31 132,7l21 -12c30,-17 67,-13 93,9l415 346c26,22 36,58 24,90l-8 23c-16,45 -4,96 31,129l404 390c49,48 54,126 9,179l0 0z"/>
    <circle id="Oval" class="fil4" cx="2003" cy="1894" r="163"/>
    <circle id="Oval_4" class="fil3" cx="2003" cy="1894" r="88"/>
    <path id="Shape_5" class="fil4" d="M1617 1187c-9,0 -19,-4 -26,-10l-376 -314c-17,-15 -20,-40 -5,-58 14,-17 40,-19 57,-5l376 315c14,11 19,29 13,45 -6,16 -22,27 -39,27l0 0z"/>
    <path id="Shape_6" class="fil4" d="M3153 2470c-10,0 -19,-3 -27,-9l-376 -314c-17,-15 -19,-41 -5,-58 15,-17 40,-20 58,-5l376 314c13,11 18,29 12,46 -6,16 -21,27 -38,26l0 0z"/>
    <path id="Shape_7" class="fil5" d="M1160 2242c-9,0 -18,-3 -26,-9l-376 -315c-17,-14 -19,-40 -5,-57 15,-17 40,-20 58,-5l376 314c13,11 18,29 12,46 -6,16 -21,26 -39,26z"/>
    <path id="Shape_8" class="fil5" d="M2226 3133c-10,0 -19,-3 -26,-9l-376 -315c-18,-14 -20,-40 -6,-57 15,-18 41,-20 58,-6l376 315c13,11 18,29 12,45 -6,16 -21,27 -38,27z"/>
    <g>
     <path id="Shape_9" class="fil3" d="M1070 2942c-17,0 -31,-10 -38,-25 -6,-15 -3,-33 9,-45l490 -490c16,-15 42,-15 57,1 16,16 16,41 1,57l-490 490c-8,8 -18,12 -29,12z"/>
     <path id="Shape_10" class="fil3" d="M947 2738c-16,0 -31,-10 -37,-25 -7,-15 -3,-33 9,-45l326 -326c16,-16 42,-16 58,0 15,16 16,41 0,57l-327 327c-7,8 -18,12 -29,12z"/>
     <path id="Shape_11" class="fil3" d="M1274 3065c-16,0 -31,-10 -38,-25 -6,-16 -2,-33 9,-45l327 -327c16,-15 42,-15 57,1 16,16 16,41 1,57l-327 327c-8,7 -18,12 -29,12z"/>
     <path id="Shape_12" class="fil3" d="M866 3146c-17,0 -32,-10 -38,-25 -6,-15 -3,-33 9,-44l82 -82c16,-15 41,-15 57,1 16,15 16,41 0,57l-81 81c-8,8 -18,12 -29,12z"/>
    </g>
    <path id="Shape_13" class="fil5" d="M2945 1594c-13,0 -25,-6 -32,-16 -8,-10 -11,-23 -7,-35 11,-41 16,-84 16,-126 0,-271 -219,-490 -490,-490 -42,-1 -85,5 -126,16 -14,4 -29,0 -40,-10 -10,-11 -14,-26 -11,-40 4,-14 15,-25 30,-29 48,-13 97,-19 147,-19 316,0 572,256 572,572 0,50 -7,99 -19,147 -5,18 -21,30 -40,30l0 0z"/>
    <path id="Shape_14" class="fil5" d="M2787 1552c-3,0 -6,0 -10,-1 -22,-6 -35,-28 -29,-50 7,-27 11,-56 11,-84 0,-181 -147,-327 -327,-327 -28,0 -57,4 -84,11 -22,6 -45,-8 -50,-29 -6,-22 7,-45 29,-50 34,-9 70,-14 105,-14 226,1 408,183 409,409 -1,35 -5,70 -14,105 -5,18 -21,30 -40,30l0 0z"/>
    <path id="Shape_15" class="fil5" d="M2629 1510c-3,0 -7,0 -10,-1 -22,-6 -35,-28 -29,-50 15,-57 -1,-117 -42,-158 -42,-41 -102,-57 -158,-42 -22,6 -44,-7 -50,-29 -6,-22 7,-44 29,-50 84,-23 175,1 236,63 62,62 86,152 64,237 -5,18 -21,30 -40,30l0 0z"/>
   </g>
   <path class="fil5" d="M1969 0c1087,0 1968,881 1968,1969 0,1087 -881,1968 -1968,1968 -1088,0 -1969,-881 -1969,-1968 0,-1088 881,-1969 1969,-1969zm0 150c1004,0 1818,814 1818,1819 0,1004 -814,1818 -1818,1818 -1005,0 -1819,-814 -1819,-1818 0,-1005 814,-1819 1819,-1819z"/>
  </g>
 </g>
</svg>
