<?xml version="1.0" encoding="UTF-8"?>
<!DOCTYPE svg PUBLIC "-//W3C//DTD SVG 1.1//EN" "http://www.w3.org/Graphics/SVG/1.1/DTD/svg11.dtd">
<!-- Creator: CorelDRAW X8 -->
<svg xmlns="http://www.w3.org/2000/svg" xml:space="preserve" width="3.93701in" height="3.93701in" version="1.1" style="shape-rendering:geometricPrecision; text-rendering:geometricPrecision; image-rendering:optimizeQuality; fill-rule:evenodd; clip-rule:evenodd"
viewBox="0 0 3937 3937"
 xmlns:xlink="http://www.w3.org/1999/xlink">
 <defs>
  <style type="text/css">
   <![CDATA[
    .fil2 {fill:#2D142C}
    .fil5 {fill:#510A32}
    .fil1 {fill:#801336}
    .fil4 {fill:#801336}
    .fil6 {fill:#C92A42}
    .fil3 {fill:#EE4540}
    .fil0 {fill:#EE4540;fill-opacity:0.109804}
   ]]>
  </style>
 </defs>
 <g id="Layer_x0020_1">
  <metadata id="CorelCorpID_0Corel-Layer"/>
  <g id="_2692742324720">
   <path class="fil0" d="M672 2404c-88,-178 -92,-361 66,-474 158,-113 480,-157 642,-318 162,-162 165,-441 260,-602 94,-160 280,-201 485,-171 205,30 429,130 484,324 55,194 -59,481 -9,670 49,189 262,280 363,430 101,149 91,357 -12,487 -104,131 -301,184 -494,83 -194,-101 -382,-356 -608,-365 -226,-10 -488,226 -704,257 -216,32 -386,-142 -473,-321z"/>
   <path class="fil1" d="M1969 0c1087,0 1968,881 1968,1969 0,1087 -881,1968 -1968,1968 -1088,0 -1969,-881 -1969,-1968 0,-1088 881,-1969 1969,-1969zm0 150c1004,0 1818,814 1818,1819 0,1004 -814,1818 -1818,1818 -1005,0 -1819,-814 -1819,-1818 0,-1005 814,-1819 1819,-1819z"/>
   <path class="fil2" d="M1713 2545l509 0 0 211 -509 0 0 -211zm0 0z"/>
   <path class="fil3" d="M2784 2574l-114 0 -1519 0c-52,0 -93,-41 -93,-93l0 -1329c0,-52 41,-93 93,-93l1633 0c23,0 43,8 59,21l0 0c1,0 2,1 2,1l0 0c1,1 1,1 2,2l0 0c0,0 1,1 1,1l0 0c1,1 1,1 2,2l0 0c1,0 1,1 2,2l0 0c0,0 1,1 1,1l0 0c1,1 1,1 2,2l0 0c14,16 22,38 22,61l0 1329c0,47 -34,86 -79,92 -1,1 -1,1 -2,1l0 0c-1,0 -2,0 -2,0l-1 0c0,0 -1,0 -2,0l0 0c-1,0 -1,0 -2,0l0 0c-1,0 -2,0 -3,0l0 0c0,0 -1,0 -2,0l0 0z"/>
   <path class="fil4" d="M2763 2349l-1705 0 0 132c0,52 41,93 93,93l1519 0 114 0 0 0c1,0 2,0 2,0l0 0c1,0 2,0 3,0l0 0c1,0 1,0 2,0l0 0c1,0 2,0 2,0l1 0c0,0 1,0 2,0l0 0c1,0 1,0 2,-1 45,-6 79,-45 79,-92l0 -132 -114 0 0 0z"/>
   <path class="fil4" d="M2763 1377l-1703 0 0 -225c0,-52 41,-93 93,-93l1633 0c20,0 39,6 54,17 1,0 1,1 2,1l0 0c1,1 1,1 2,1l0 1c0,0 1,0 1,1l0 0c1,0 2,1 2,1l0 0c1,1 1,1 2,2l0 0c19,17 30,42 30,69l0 225 -116 0 0 0z"/>
   <path class="fil4" d="M2387 2878l-839 0c-10,0 -18,-8 -18,-18l0 -59c0,-40 32,-73 73,-73l729 0c41,0 73,33 73,73l0 59c0,10 -8,18 -18,18zm0 0z"/>
   <path class="fil5" d="M1422 1733c-7,0 -14,-2 -19,-7l-86 -87c-11,-10 -11,-27 0,-37l86 -86c10,-11 27,-11 37,0 11,10 11,27 0,37l-67 68 67 67c11,10 11,27 0,38 -5,5 -12,7 -18,7zm0 0z"/>
   <path class="fil5" d="M1627 1733c-6,0 -13,-2 -18,-7 -11,-11 -11,-28 0,-38l67 -67 -67 -68c-11,-10 -11,-27 0,-37 10,-11 27,-11 37,0l86 86c11,10 11,27 0,37l-86 87c-5,5 -12,7 -19,7zm0 0z"/>
   <path class="fil5" d="M1494 1733c-4,0 -7,0 -10,-1 -14,-6 -21,-21 -15,-35l67 -172c6,-14 21,-21 35,-15 14,5 20,21 15,34l-68 172c-4,11 -14,17 -24,17l0 0zm0 0z"/>
   <path class="fil5" d="M1536 1895l-185 0c-15,0 -27,-12 -27,-27 0,-15 12,-27 27,-27l185 0c15,0 27,12 27,27 0,15 -12,27 -27,27l0 0zm0 0z"/>
   <path class="fil5" d="M1962 1895l-325 0c-15,0 -27,-12 -27,-27 0,-15 12,-27 27,-27l325 0c15,0 27,12 27,27 0,15 -12,27 -27,27l0 0zm0 0z"/>
   <path class="fil5" d="M1430 2010l-79 0c-15,0 -27,-12 -27,-26 0,-15 12,-27 27,-27l79 0c15,0 26,12 26,27 0,14 -11,26 -26,26zm0 0z"/>
   <path class="fil5" d="M1910 2010l-48 0c-15,0 -27,-12 -27,-26 0,-15 12,-27 27,-27l48 0c14,0 26,12 26,27 0,14 -12,26 -26,26zm0 0z"/>
   <path class="fil5" d="M1762 2010l-236 0c-15,0 -26,-12 -26,-26 0,-15 11,-27 26,-27l236 0c15,0 27,12 27,27 0,14 -12,26 -27,26zm0 0z"/>
   <path class="fil5" d="M2087 2010l-90 0c-15,0 -27,-12 -27,-26 0,-15 12,-27 27,-27l90 0c14,0 26,12 26,27 0,14 -12,26 -26,26zm0 0z"/>
   <path class="fil5" d="M1915 1642l-95 0c-15,0 -27,-12 -27,-27 0,-15 12,-27 27,-27l95 0c14,0 26,12 26,27 0,15 -12,27 -26,27l0 0zm0 0z"/>
   <path class="fil5" d="M2599 1642l-578 0c-15,0 -27,-12 -27,-27 0,-15 12,-27 27,-27l578 0c15,0 27,12 27,27 0,15 -12,27 -27,27l0 0zm0 0z"/>
   <path class="fil5" d="M2512 1763l-235 0c-15,0 -26,-12 -26,-27 0,-15 11,-27 26,-27l235 0c14,0 26,12 26,27 0,15 -12,27 -26,27l0 0zm0 0z"/>
   <path class="fil5" d="M2189 1763l-80 0c-15,0 -27,-12 -27,-27 0,-15 12,-27 27,-27l80 0c15,0 27,12 27,27 0,15 -12,27 -27,27l0 0zm0 0z"/>
   <path class="fil5" d="M2017 1763l-197 0c-15,0 -27,-12 -27,-27 0,-15 12,-27 27,-27l197 0c15,0 27,12 27,27 0,15 -12,27 -27,27l0 0zm0 0z"/>
   <path class="fil5" d="M1762 2125l-185 0c-14,0 -26,-12 -26,-26 0,-15 12,-27 26,-27l185 0c15,0 27,12 27,27 0,14 -12,26 -27,26zm0 0z"/>
   <path class="fil5" d="M1493 2125l-142 0c-15,0 -27,-12 -27,-26 0,-15 12,-27 27,-27l142 0c15,0 27,12 27,27 0,14 -12,26 -27,26zm0 0z"/>
   <path class="fil5" d="M2098 2125l-242 0c-15,0 -27,-12 -27,-26 0,-15 12,-27 27,-27l242 0c14,0 26,12 26,27 0,14 -12,26 -26,26zm0 0z"/>
   <path class="fil3" d="M1286 1217c0,29 -24,53 -53,53 -30,0 -53,-24 -53,-53 0,-29 23,-53 53,-53 29,0 53,24 53,53zm0 0z"/>
   <path class="fil6" d="M1491 1217c0,29 -24,53 -53,53 -29,0 -53,-24 -53,-53 0,-29 24,-53 53,-53 29,0 53,24 53,53zm0 0z"/>
   <path class="fil3" d="M1696 1217c0,29 -24,53 -53,53 -29,0 -53,-24 -53,-53 0,-29 24,-53 53,-53 29,0 53,24 53,53zm0 0z"/>
  </g>
 </g>
</svg>
