<?xml version="1.0" encoding="UTF-8"?>
<!DOCTYPE svg PUBLIC "-//W3C//DTD SVG 1.1//EN" "http://www.w3.org/Graphics/SVG/1.1/DTD/svg11.dtd">
<!-- Creator: CorelDRAW X8 -->
<svg xmlns="http://www.w3.org/2000/svg" xml:space="preserve" width="3.93701in" height="3.93701in" version="1.1" style="shape-rendering:geometricPrecision; text-rendering:geometricPrecision; image-rendering:optimizeQuality; fill-rule:evenodd; clip-rule:evenodd"
viewBox="0 0 3937 3937"
 xmlns:xlink="http://www.w3.org/1999/xlink">
 <defs>
  <style type="text/css">
   <![CDATA[
    .fil4 {fill:#510A32}
    .fil1 {fill:#801336}
    .fil2 {fill:#C92A42}
    .fil3 {fill:#EE4540}
    .fil0 {fill:#EE4540;fill-opacity:0.109804}
   ]]>
  </style>
 </defs>
 <g id="Layer_x0020_1">
  <metadata id="CorelCorpID_0Corel-Layer"/>
  <g id="_2692655569264">
   <path class="fil0" d="M672 2404c-88,-178 -92,-361 66,-474 158,-113 480,-157 642,-318 162,-162 165,-441 260,-602 94,-160 280,-201 485,-171 205,30 429,130 484,324 55,194 -59,481 -9,670 49,189 262,280 363,430 101,149 91,357 -12,487 -104,131 -301,184 -494,83 -194,-101 -382,-356 -608,-365 -226,-10 -488,226 -704,257 -216,32 -386,-142 -473,-321z"/>
   <path class="fil1" d="M1969 0c1087,0 1968,881 1968,1969 0,1087 -881,1968 -1968,1968 -1088,0 -1969,-881 -1969,-1968 0,-1088 881,-1969 1969,-1969zm0 150c1004,0 1818,814 1818,1819 0,1004 -814,1818 -1818,1818 -1005,0 -1819,-814 -1819,-1818 0,-1005 814,-1819 1819,-1819z"/>
   <g>
    <path class="fil2" d="M803 1687l430 1394c6,19 23,28 42,22l1837 -567c19,-6 28,-23 22,-42l-352 -1140c-14,-44 -67,-14 -125,4l-1030 314c23,-8 248,-132 275,-147 91,-49 181,-96 274,-146l480 -258c80,-42 33,-63 -78,-179 -129,-135 -91,-134 -230,-59 -235,128 -476,251 -712,379 -65,35 -138,75 -203,108 -32,16 -382,206 -410,215 -43,14 -87,27 -131,40 -44,14 -102,19 -89,62z"/>
    <polygon class="fil3" points="1287,3030 3077,2477 3061,2482 2807,1658 1033,2206 "/>
    <path class="fil3" d="M1165 1957l62 -19 20 63 -63 20 -19 -64zm-128 40l64 -20 20 63 -64 20 -20 -63zm-79 -253l64 -20 20 63 -63 20 -21 -63zm55 399l317 -98 -61 -198c-8,-26 -83,-83 -108,-104 -36,-31 -76,-63 -111,-97l-174 53 137 444z"/>
    <polygon class="fil4" points="2575,1659 2787,1595 2728,1405 2563,1456 "/>
    <polygon class="fil4" points="1269,1534 1439,1696 1583,1620 1413,1459 "/>
    <path class="fil4" d="M1827 1237l170 160c26,-11 111,-54 128,-70l-167 -158 -131 68z"/>
    <polygon class="fil4" points="1475,1424 1646,1586 1775,1517 1606,1358 "/>
    <polygon class="fil4" points="1751,1913 1907,1867 1896,1664 1739,1711 "/>
    <polygon class="fil4" points="2163,1786 2319,1739 2307,1537 2151,1584 "/>
    <path class="fil4" d="M2181 1049l169 159 129 -69c-19,-22 -61,-59 -85,-80 -28,-25 -58,-53 -84,-79l-129 69z"/>
    <polygon class="fil4" points="1393,2025 1480,1998 1495,1993 1484,1791 1469,1794 1335,1836 "/>
    <polygon class="fil4" points="2384,1718 2510,1681 2498,1478 2372,1515 "/>
    <polygon class="fil4" points="1561,1972 1686,1935 1674,1732 1549,1769 "/>
    <polygon class="fil4" points="1972,1845 2098,1808 2086,1605 1961,1642 "/>
    <path class="fil4" d="M1667 1322l172 161c25,-14 77,-35 94,-54l-166 -157 -100 50z"/>
    <polygon class="fil4" points="2020,1134 2188,1293 2287,1242 2118,1083 "/>
    <path class="fil4" d="M1117 1614c16,22 68,63 89,81 28,23 68,55 90,79l81 -43 -172 -163 -88 46z"/>
    <path class="fil4" d="M2373 947c16,19 158,151 171,157l63 -34c-15,-19 -145,-156 -158,-163l-76 40z"/>
    <polygon class="fil4" points="1057,2060 1121,2040 1101,1977 1037,1997 "/>
    <polygon class="fil4" points="979,1807 1042,1787 1022,1724 958,1744 "/>
    <polygon class="fil4" points="1184,2021 1247,2001 1227,1938 1165,1957 "/>
    <g>
     <polygon class="fil4" points="1501,2564 1495,2566 2637,2213 2643,2211 2661,2268 1518,2621 "/>
     <polygon class="fil4" points="1547,2714 2690,2362 2707,2418 1565,2771 "/>
     <polygon class="fil4" points="1455,2414 1449,2416 2591,2063 2597,2061 2614,2117 1472,2470 "/>
     <polygon class="fil4" points="1408,2264 1402,2266 2545,1913 2551,1911 2568,1967 1426,2320 "/>
    </g>
   </g>
  </g>
 </g>
</svg>
